<svg xmlns="http://www.w3.org/2000/svg" viewBox="0 0 629 1475"><defs><style>.cls-1{fill:#d9d9d9;}.cls-2,.cls-3{fill:none;stroke-linecap:round;stroke-width:20px;}.cls-2{stroke:#5a2980;stroke-miterlimit:10;}.cls-3{stroke:#8a1f5a;stroke-linejoin:round;}.cls-4,.cls-8{fill:#5a2980;}.cls-5,.cls-6{fill:#8a1f5a;}.cls-6{font-size:128.78px;font-family:Arciform, Arciform Sans;}.cls-7{letter-spacing:0.02em;}.cls-8{letter-spacing:0.02em;}.cls-9{letter-spacing:0.02em;}.cls-10{letter-spacing:0.03em;}.cls-11{letter-spacing:0.04em;}.cls-12{letter-spacing:0em;}</style></defs><g id="Layer_2" data-name="Layer 2"><g id="Text"><rect class="cls-1" width="629" height="1475" rx="37.54"/><path id="d" class="cls-2" d="M92.4,688.41v41.36s1.91,49,45.64,46.59,91.27-27.1,88.89-76.06-73.68-56.1-96.5-55.15-87.94,1.43-89.36,24.25,18.53,18.54,26.62,17.11,80.81-25.19,151.16,24.25"/><g id="m"><path class="cls-3" d="M91.81,564.72c3.17-17.48,28.24-18.09,32.19-.79v56.52s.12,1.8.17,1.8V575.48a16.38,16.38,0,0,1,32.18.76v47h0V587.3a16.31,16.31,0,0,1,32.29-.39v43.74l.07,0V598.23a16.32,16.32,0,0,1,32.29.41"/><line class="cls-3" x1="91.81" y1="564.28" x2="91.81" y2="616.13"/><line class="cls-3" x1="221" y1="598.06" x2="221" y2="646.02"/></g><circle id="ponto_final" data-name="ponto final" class="cls-4" cx="582.35" cy="750.21" r="13.61"/><circle id="ponto_inicial" data-name="ponto inicial" class="cls-5" cx="46.43" cy="611.61" r="13.39"/><text class="cls-6" transform="translate(264.42 654.98)"><tspan class="cls-7">m</tspan><tspan x="101.48" y="0">e</tspan><tspan class="cls-8"><tspan x="0" y="103.02">d</tspan><tspan class="cls-9" x="74.82" y="103.02">e</tspan><tspan class="cls-10" x="144.1" y="103.02">i</tspan><tspan class="cls-11" x="168.31" y="103.02">x</tspan><tspan class="cls-12" x="226.64" y="103.02">e </tspan></tspan></text></g></g></svg>