<svg xmlns="http://www.w3.org/2000/svg" xmlns:xlink="http://www.w3.org/1999/xlink" viewBox="0 0 500.09 319.84"><defs><style>.cls-1,.cls-13,.cls-17,.cls-21,.cls-7,.cls-9{fill:none;}.cls-2{fill:#ffd6b8;}.cls-3{fill:#d5edcc;}.cls-4{fill:#ff9583;}.cls-5{fill:#ffb7a9;}.cls-6{fill:#263238;}.cls-21,.cls-7{stroke:#263238;}.cls-12,.cls-17,.cls-7,.cls-9{stroke-linecap:round;stroke-linejoin:round;}.cls-8{fill:#a5d392;}.cls-12,.cls-13,.cls-9{stroke:#ff9a6c;}.cls-10{opacity:0.3;}.cls-11{fill:#ff9a6c;}.cls-12{fill:url(#Unnamed_Pattern_4);}.cls-13,.cls-21{stroke-miterlimit:10;}.cls-14{fill:#a374c1;}.cls-15{fill:#d9c0e7;}.cls-16{fill:#ffca9c;}.cls-17{stroke:#e88158;}.cls-18{opacity:0.4;}.cls-19{fill:#f9be69;}.cls-20{fill:#f9d495;}</style><pattern id="Unnamed_Pattern_4" data-name="Unnamed Pattern 4" width="17.66" height="17.66" patternTransform="translate(15.95 -27.59) scale(1.23)" patternUnits="userSpaceOnUse" viewBox="0 0 17.66 17.66"><rect class="cls-1" width="17.66" height="17.66"/><rect class="cls-2" width="17.66" height="17.66"/></pattern></defs><g id="Layer_2" data-name="Layer 2"><g id="OBJECTS_" data-name="OBJECTS
"><path class="cls-3" d="M252.19,258.26c-5.57,15.24-.26,33.78,12.53,43.76,7-14.53,1.15-33.23-12.53-43.76"/><path class="cls-4" d="M288.85,300.69a84.52,84.52,0,0,0,10.29,12.13,8.71,8.71,0,0,0,3.77,2.43c3.11.81,5.52-.77,7.12-2.29,2.65-2.49,3.72-6,2.16-9.19,2.8.63,5.39-1.55,5.74-5.68.32-3.74-4.05-5.75-4.05-5.75a7.78,7.78,0,0,0,6.89-13.7c2.59.41,5.08-2,5.3-4.58a7.31,7.31,0,0,0-3.67-6.51,14.25,14.25,0,0,0-7.55-1.78s-25.85,10.07-26,10.38-5,14.81-5,14.81Z"/><path class="cls-5" d="M279.1,285.27c4.18-16.72,10.63-21.65,13.26-23.73a24.71,24.71,0,0,1,8.6-4,54.66,54.66,0,0,1,12-1.19,15.93,15.93,0,0,1,6.4,1.09,6.68,6.68,0,0,1,4,4.82,6.88,6.88,0,0,1-3,6.18,20.21,20.21,0,0,1-6.6,2.83,3.27,3.27,0,0,1,3,2.13,7.25,7.25,0,0,1,.24,3.87,9.78,9.78,0,0,1-2.69,5.74c-2.72,2.52-6.9,2.32-10.59,2-7-.68-14.9-4.18-24.6.27"/><path class="cls-5" d="M284.4,271.72c-8.28,15.11-6.89,23.11-6.36,26.43a24.71,24.71,0,0,0,3.61,8.75,54.58,54.58,0,0,0,8,9,15.93,15.93,0,0,0,5.44,3.54,6.66,6.66,0,0,0,6.22-.81c1.87-1.51,2.42-4.21,2-6.58a20.19,20.19,0,0,0-2.93-6.55A3.27,3.27,0,0,0,304,306a7.23,7.23,0,0,0,2.81-2.68,9.79,9.79,0,0,0,1.92-6c-.28-3.69-3.49-6.39-6.45-8.63-5.57-4.22-13.77-7-17.88-16.89"/><path class="cls-6" d="M285.73,288.86a2.56,2.56,0,0,0,.85-2.51,18.28,18.28,0,0,0-1.3-5.82,9.41,9.41,0,0,0,6,0,1.27,1.27,0,0,0,.16-2.32,11.23,11.23,0,0,0-6.73-1.2,19.62,19.62,0,0,0,3-6.13c.19-.64.28-1.46-.27-1.83s-1.3,0-1.82.48a16.3,16.3,0,0,0-5.14,8.41l.28-1a17.51,17.51,0,0,0-2.35,10.55.86.86,0,0,0,1.62.26,29.72,29.72,0,0,0,1.66-5.18c-.1,1.49.33,4.6,1.34,5.78A2.12,2.12,0,0,0,285.73,288.86Z"/><path class="cls-7" d="M239.51,230.67a70.57,70.57,0,0,0,42.62,49.65"/><path class="cls-3" d="M40,271.68c4.25,19,21.62,34.22,41,36-2.38-19.17-20.37-34.25-41-36"/><path class="cls-8" d="M21.44,277.6c-6,12.28-3.15,28.29,6.7,37.76,7.12-11.57,3.86-27.75-6.7-37.76"/><path class="cls-8" d="M222.72,208.88c15.43,25.33,48,38.88,76.82,32-12.82-26.54-46.19-39.53-76.82-32"/><path class="cls-3" d="M254.26,136.12c26.17-13.94,41.58-45.65,36.35-74.84-27.23,11.26-42.13,43.82-36.35,74.84"/><polygon class="cls-2" points="0.09 169.54 210.34 191.98 225.45 252.41 0.09 289.68 0.09 169.54"/><path class="cls-2" d="M233.4,120.47s11.92-32.19,12.32-39.74-1.59-23.85,3.57-25,9.14-.79,11.13,6.76,2.78,13.91,2.39,27.42-6.22,40.54-4.3,44.11-1.92,28.62,0,41.73,1.59,48.92-3.65,58.42c-7.67,13.9-29.41,18.28-29.41,18.28s-15.5-38.55-15.1-39.74S233.4,120.47,233.4,120.47Z"/><path class="cls-2" d="M274.08,16.76c2.95,6.61.89,11.79-2.29,25.3S261,89.69,261,89.69l-4.45,33.38-43.25,88.86-18.89-18.72S211,187.42,216,154.47c4-26.75,9.05-36.95,9.85-48.48s4.06-33.79,4.45-35S258.5.27,258.5.27s11.15-2.82,13.29,9.79l-.21,3.84Z"/><path class="cls-9" d="M232,112.31c.18-1.22,3.91-26.9,5-35.54a23.63,23.63,0,0,1,1.53-5.9c5.3-13.18,23.32-56.41,23.9-56.8s13.05-4,13.05,10.83"/><g class="cls-10"><path class="cls-11" d="M254.94,56.73c-.83-2-6.59-.47-8.25,1a8.8,8.8,0,0,0-2.7,5.91c-2.05,25.1-6.81,30.66-10.21,46-2,9.18-4.11,22.64-3.83,32l7.53-18.59a138.81,138.81,0,0,0,15.08-62.72C252.56,59.68,255.18,57.34,254.94,56.73Z"/></g><path class="cls-12" d="M225.45,252.41s21.74-4.38,29.41-18.28c5.24-9.5,5.56-45.3,3.65-58.42s.11-33.67,0-41.73c-.06-4,3.9-30.6,4.3-44.11s.09-17-1.69-24.59c-1.91-8.19-7.56-11.39-11.77-7.48-3.89,3.6-3.24,15.38-3.63,22.93s-12.32,39.74-12.32,39.74l-3.2,26.06"/><path class="cls-13" d="M236.28,121.85a21.24,21.24,0,0,1,11.94,1.44"/><path class="cls-12" d="M198.24,191.51S204,207.13,207,213.85"/><circle class="cls-12" cx="185.62" cy="220.22" r="8.99"/><path class="cls-12" d="M163.14,220.75h13.49"/><path class="cls-12" d="M167.47,217.5v6.31"/><path class="cls-8" d="M318.76,111.43a28.63,28.63,0,0,1-3.19-32.63c8.52,7.89,9.57,22,3.19,32.63"/><path class="cls-7" d="M304.12,151.68a74.09,74.09,0,0,1,35.34-58.91"/><path class="cls-14" d="M362.93,81.56a4.25,4.25,0,0,0-4.11-1.22,11.26,11.26,0,0,0-4,2,137.55,137.55,0,0,0-12.28,10l3.67-.37a31.83,31.83,0,0,0,12.18-2.37,9.82,9.82,0,0,0,4.36-3A4.21,4.21,0,0,0,362.93,81.56Z"/><path class="cls-14" d="M360.27,72.88a4.25,4.25,0,0,0-4.28-.22,11.39,11.39,0,0,0-3.44,2.86,136.17,136.17,0,0,0-9.61,12.55l3.47-1.22A31.74,31.74,0,0,0,357.7,81.7a9.76,9.76,0,0,0,3.54-3.93A4.21,4.21,0,0,0,360.27,72.88Z"/><path class="cls-14" d="M351.22,70.12a4.24,4.24,0,0,0-4.05,1.38A11.17,11.17,0,0,0,345,75.44a137.77,137.77,0,0,0-4.27,15.21l2.78-2.42a31.85,31.85,0,0,0,8.56-9,9.7,9.7,0,0,0,1.83-5A4.19,4.19,0,0,0,351.22,70.12Z"/><path class="cls-15" d="M338.8,89.68A31.61,31.61,0,0,1,339,77.27a9.81,9.81,0,0,1,2.16-4.83,3.78,3.78,0,0,1,6.79,2.75,11.33,11.33,0,0,1-1.22,4.3,139,139,0,0,1-7.59,13.86"/><path class="cls-15" d="M361.83,89.57a4.23,4.23,0,0,0-3.52-2.45,11.2,11.2,0,0,0-4.43.61,138,138,0,0,0-14.79,5.57l3.6.81A31.69,31.69,0,0,0,355,95.69a9.77,9.77,0,0,0,5.09-1.46A4.21,4.21,0,0,0,361.83,89.57Z"/><path class="cls-15" d="M339.09,93.35c1.41-2.66,3.53-6.14,5-8.86a16.15,16.15,0,0,1,6.18-6.73,5.18,5.18,0,0,1,4.5-.51c2.2,1,2.72,4.09,1.69,6.27s-3.13,3.64-5.16,4.94a30,30,0,0,1-12.2,4.89"/><path class="cls-6" d="M347.39,93.11c-.19-.3-.41-.67-1.42-.78a25.87,25.87,0,0,0-4.57-.17,15,15,0,0,0,4.06-1.85,2.33,2.33,0,0,0,1-2c-.2-.6-1-.64-1.64-.49a7.78,7.78,0,0,0-4.66,3.32,7.53,7.53,0,0,0,.06-5.23c-.15-.42-.39-.86-.82-1a1,1,0,0,0-.9.44,2.35,2.35,0,0,0-.32,1,12.71,12.71,0,0,0,1,7,19.31,19.31,0,0,0,7.3,1.78,1.07,1.07,0,0,0,1-.66A1.69,1.69,0,0,0,347.39,93.11Z"/><path class="cls-16" d="M392.55,109.52s-32.18,5.16-54.81,3.42c-19.93-1.54-34.78-3.23-41.16-3.61S266,104,262.31,125.25c0,0-9.37,63.32-7,74.77s5.89,16.1,18.39,18.15c0,0-4.68,7.67,5.07,19.92s30.32-2.73,45.43-8.77,40.12-10.43,51.53-19.42,15.59-20.05,21.08-25.18,8-6.33,16.08-9.82Z"/><path class="cls-17" d="M273,220.22c1.82-7.35,9.14-11.77,15.92-15.1s14.29-7,17.26-13.94c2.37-5.56,1.19-12.11-1.57-17.49s-6.95-9.87-10.88-14.46-7.75-9.51-9.54-15.29"/><path class="cls-17" d="M300.72,169.54,293.35,178a5.64,5.64,0,0,1-.24,5.25,4.21,4.21,0,0,1,4.38.68,12.52,12.52,0,0,1,7.68-8.42"/><path class="cls-17" d="M293.33,178.08a67,67,0,0,0-18.1-7.36"/><path class="cls-17" d="M293.27,183.16a147.13,147.13,0,0,0-20.94,17.65"/><path class="cls-17" d="M297.36,184.19a38.15,38.15,0,0,1,5.24,11.59"/><path class="cls-16" d="M392.55,109.52s38.52-3.4,53.18-4,54.36-6.77,54.36-6.77V192s-18.43-4.51-31.43-7.79c-34.69-8.74-68.84-2.11-68.84-2.11Z"/><g class="cls-18"><path class="cls-11" d="M287.28,151.92c-.91,3.43,1.11,6.93,3.41,9.63s5.06,5.23,6.05,8.64a4.73,4.73,0,0,1-.62,4.49c-1.68,1.86-4.77,1-6.94-.23s-4.54-2.9-7-2.21c-.16,1.72,1.48,3.1,3.13,3.62s3.44.53,5,1.24,2.88,2.56,2.13,4.12a5.08,5.08,0,0,1-2.45,1.95,17.82,17.82,0,0,0-7.73,8.23c1.92.51,3.92-.46,5.49-1.67s3-2.72,4.77-3.53,4.27-.71,5.41.92c.53.76.69,1.73,1.15,2.53s1.51,1.45,2.31,1c1-.59.61-2,.21-3.11-1.06-2.82-1.26-6.5,1.12-8.35.94-.74,2.23-1.14,2.75-2.21s-.1-2.63-.81-3.78a89.55,89.55,0,0,0-17.3-20.52"/></g><path class="cls-17" d="M403.58,179.74q-1-11.37-2.05-22.75"/><path class="cls-19" d="M372,268.5a5.68,5.68,0,0,0-.06-5.72,15,15,0,0,0-4.08-4.35,183.48,183.48,0,0,0-17.5-11.8l1.91,4.54a42.46,42.46,0,0,0,7.78,14.62,13.08,13.08,0,0,0,5.52,4.41C367.84,271,370.69,270.48,372,268.5Z"/><path class="cls-19" d="M382.05,261.72a5.66,5.66,0,0,0-1.39-5.55,15,15,0,0,0-5-3.27,182.58,182.58,0,0,0-19.77-7.37l2.91,4a42.48,42.48,0,0,0,11,12.4,13,13,0,0,0,6.4,3C378.57,265.11,381.22,264,382.05,261.72Z"/><path class="cls-19" d="M382.05,249.09a5.66,5.66,0,0,0-3.36-4.63,14.89,14.89,0,0,0-5.85-1.19,183.35,183.35,0,0,0-21.09.5l4.18,2.6a42.3,42.3,0,0,0,14.8,7.43,13.05,13.05,0,0,0,7,.39C380.07,253.53,382.11,251.48,382.05,249.09Z"/><path class="cls-20" d="M352.22,240.87a42.48,42.48,0,0,1,15.9-4.65,13.12,13.12,0,0,1,7,.87c2.13,1.07,3.77,3.45,3.28,5.79a5.66,5.66,0,0,1-4.13,4,14.81,14.81,0,0,1-6,.12,180.32,180.32,0,0,1-20.66-4.28"/><path class="cls-20" d="M361.36,270.23a5.67,5.67,0,0,0,1.75-5.45,15,15,0,0,0-2.51-5.42,182,182,0,0,0-12.89-16.7l.38,4.91a42.29,42.29,0,0,0,2.78,16.32,13,13,0,0,0,3.86,5.92C356.62,271.26,359.48,271.69,361.36,270.23Z"/><path class="cls-20" d="M347.65,242.67c4,.76,9.21,2.11,13.27,2.92a21.68,21.68,0,0,1,11,5.26,6.9,6.9,0,0,1,2.41,5.54c-.4,3.2-4.16,5.08-7.35,4.62s-5.86-2.58-8.32-4.66a40.18,40.18,0,0,1-11-13.68"/><path class="cls-6" d="M351.19,253.19a2.09,2.09,0,0,0,.45-2.13,34.55,34.55,0,0,0-1.56-5.9,19.64,19.64,0,0,0,3.94,4.46,3.13,3.13,0,0,0,3,.45c.68-.49.41-1.57,0-2.29a10.35,10.35,0,0,0-6.06-4.65,10.09,10.09,0,0,0,6.71-2,1.76,1.76,0,0,0,.88-1.42,1.24,1.24,0,0,0-.91-1,3.19,3.19,0,0,0-1.41,0,16.8,16.8,0,0,0-8.51,4c-.3,3.61-.51,4.55.57,10a1.46,1.46,0,0,0,1.25,1.05A2.22,2.22,0,0,0,351.19,253.19Z"/><path class="cls-8" d="M36.81,160.37c6.72-17.2,1.14-38.44-13.16-50.12-8.31,16.37-2.15,37.8,13.16,50.12"/><path class="cls-8" d="M56.46,150.1a30.74,30.74,0,0,0,34-8.94c-11.12-5.64-25.68-1.46-34,8.94"/><path class="cls-8" d="M134.3,163.81c13.56,15.17,37.21,20.25,55.81,12-12-16.31-36.08-20.91-55.81-12"/><path class="cls-8" d="M132.69,104.1c7.39-11.77,6.25-28.27-2.69-38.91-8.45,10.93-6.9,27.65,2.69,38.91"/><path class="cls-8" d="M131.2,260.25c-2,21.67,12.18,43.5,33.42,51.53,4.17-21.29-10.76-43.13-33.42-51.53"/><path class="cls-8" d="M107.52,210c9.28,21.08,34,33.46,58.41,29.21-7-21.93-32.49-33.9-58.41-29.21"/><path class="cls-3" d="M72.84,158.12c-8.93,14.35-8.69,34.27.59,47,10-13.35,9.37-33.53-.59-47"/><path class="cls-21" d="M26.6,172.37c9.17-18,30.15-18.43,41-16,12.48,2.8,24,22.91,29.41,32.62s10.07,18.38,13.76,28.88,7.28,22.69,13.51,31.92a56.5,56.5,0,0,0,36,23.7c19.42,3.69,35.16-10.91,35.16-18.08"/><path class="cls-4" d="M189.11,140.15a107.22,107.22,0,0,0,20.67-9.24c4.49-4.14,3.3-8.65,1.8-11.69-2-4.08-5.83-6.65-10.24-6,1.78-3.12.11-7-4.71-9-4.38-1.76-8.39,2.75-8.39,2.75a9.76,9.76,0,0,0-13.91-13.28c1.44-3-.5-6.82-3.55-8s-6.69-.15-9.16,2a17.85,17.85,0,0,0-4.89,8.41s2.61,34.7,2.94,35,15.94,11.43,15.94,11.43Z"/><path class="cls-5" d="M167,146.19c-20.67-12.41-23.8-19.91-24.77-23.88a26.58,26.58,0,0,1-.71-5.89,68.19,68.19,0,0,1,3.2-21.37,20,20,0,0,1,3.65-7.28,8.34,8.34,0,0,1,7.25-3c3,.45,5.29,3,6.31,5.87s1,5.93,1,8.94a4.11,4.11,0,0,1,3.66-2.82,9,9,0,0,1,4.73,1.13,12.29,12.29,0,0,1,5.9,5.32c2,4.18.26,9.13-1.53,13.43-3.36,8.09-10.46,16.34-8.67,29.6"/><path class="cls-5" d="M152.72,134.87a73.34,73.34,0,0,0,7.22,7.09,39.65,39.65,0,0,0,43.63,5q2.07-1,4.06-2.25a19.83,19.83,0,0,0,6.23-5.23,8.34,8.34,0,0,0,1.31-7.75C214,129,211,127.33,208,127s-6,.39-8.93,1.12a4.11,4.11,0,0,0,1.9-4.21,9,9,0,0,0-2.19-4.34,12.24,12.24,0,0,0-6.53-4.52c-4.54-1-8.95,1.85-12.72,4.58-7.1,5.13-13.49,13.94-26.81,15.26"/><path class="cls-6" d="M173.77,139.56c-.34-1.23-1.57-1.67-2.69-1.95a23.43,23.43,0,0,0-7.46-.57A11.85,11.85,0,0,0,165.3,127a14.06,14.06,0,0,0-6.17,9.48,25,25,0,0,0-6.25-5.88c-.7-.46-1.65-.87-2.29-.35s-.43,1.58-.09,2.36a20.38,20.38,0,0,0,8.2,9.24l-1.09-.7c3.82,4,8.79,6.8,14.3,6.93-1.1-2.46-4.93-4.53-7.2-6,1.74.66,5.63,1.28,7.41.5A2.65,2.65,0,0,0,173.77,139.56Z"/><path class="cls-7" d="M87.9,173.33a86.62,86.62,0,0,0,74.3-32.58"/><path class="cls-19" d="M204.39,51.82a4.67,4.67,0,0,0-3.45,3.24,12.16,12.16,0,0,0-.35,4.92,150.65,150.65,0,0,0,2.64,17.25l1.68-3.7a35.11,35.11,0,0,0,4.53-12.93,10.73,10.73,0,0,0-.42-5.82A4.64,4.64,0,0,0,204.39,51.82Z"/><path class="cls-19" d="M194.64,49.52a4.7,4.7,0,0,0-2.59,4,12.21,12.21,0,0,0,.81,4.87,149.74,149.74,0,0,0,6.61,16.14l.77-4a34.87,34.87,0,0,0,1.37-13.62,10.83,10.83,0,0,0-1.77-5.57C198.65,49.74,196.46,48.77,194.64,49.52Z"/><path class="cls-19" d="M187,56.61a4.68,4.68,0,0,0-.94,4.63,12.39,12.39,0,0,0,2.56,4.22A151.11,151.11,0,0,0,200.72,78L200,74a35.16,35.16,0,0,0-3.79-13.17,10.83,10.83,0,0,0-3.71-4.5C190.77,55.32,188.38,55.23,187,56.61Z"/><path class="cls-20" d="M198.69,79.34a35.18,35.18,0,0,1-11.74-7,10.85,10.85,0,0,1-3.39-4.75,4.17,4.17,0,0,1,6.39-5,12.39,12.39,0,0,1,3.42,3.57,152.57,152.57,0,0,1,9,15"/><path class="cls-20" d="M211.41,57.33a4.67,4.67,0,0,0-4.29,2,12.25,12.25,0,0,0-1.88,4.56,151,151,0,0,0-2.93,17.2l2.77-3a35.15,35.15,0,0,0,8.36-10.85,10.76,10.76,0,0,0,1.44-5.66C214.7,59.63,213.36,57.65,211.41,57.33Z"/><path class="cls-20" d="M202.36,81.11c-1.76-2.83-3.89-6.78-5.67-9.7a17.86,17.86,0,0,1-3-9.63,5.72,5.72,0,0,1,2-4.57c2.17-1.55,5.42-.32,6.93,1.88s1.72,5,1.83,7.67a33.06,33.06,0,0,1-2.13,14.35"/><path class="cls-6" d="M206.75,73.06c-.4,0-.86,0-1.54.92a29.61,29.61,0,0,0-2.71,4.26,16.06,16.06,0,0,0,.5-4.9,2.57,2.57,0,0,0-1.4-2.06c-.68-.14-1.18.63-1.38,1.29a8.58,8.58,0,0,0,.57,6.29,8.3,8.3,0,0,0-4.95-3,1.41,1.41,0,0,0-1.36.26,1,1,0,0,0-.08,1.1,2.66,2.66,0,0,0,.78.86,13.85,13.85,0,0,0,7.18,3,21.61,21.61,0,0,0,5.76-6,1.19,1.19,0,0,0-.06-1.35A1.89,1.89,0,0,0,206.75,73.06Z"/><path class="cls-19" d="M209.26,309.12a5.68,5.68,0,0,0,1.32-5.57,14.76,14.76,0,0,0-2.93-5.2A180.66,180.66,0,0,0,193.5,282.7l.76,4.86a42.44,42.44,0,0,0,4.05,16.06,13,13,0,0,0,4.3,5.6C204.61,310.52,207.5,310.72,209.26,309.12Z"/><path class="cls-19" d="M220.63,304.94a5.68,5.68,0,0,0,0-5.72,15,15,0,0,0-4.07-4.38A182.07,182.07,0,0,0,199.11,283l1.89,4.54a42.3,42.3,0,0,0,7.69,14.67,13.07,13.07,0,0,0,5.5,4.43C216.44,307.39,219.29,306.91,220.63,304.94Z"/><path class="cls-19" d="M223.65,292.67a5.65,5.65,0,0,0-2.15-5.3,14.89,14.89,0,0,0-5.39-2.55,182.84,182.84,0,0,0-20.6-4.57l3.43,3.52a42.43,42.43,0,0,0,12.6,10.76,13.2,13.2,0,0,0,6.75,2.08C220.67,296.51,223.14,295,223.65,292.67Z"/><path class="cls-20" d="M196.66,277.55a42.33,42.33,0,0,1,16.55-.71,13.1,13.1,0,0,1,6.6,2.53c1.81,1.54,2.83,4.25,1.8,6.4a5.67,5.67,0,0,1-5,2.85,14.83,14.83,0,0,1-5.83-1.32,181.25,181.25,0,0,1-19-9.1"/><path class="cls-20" d="M198.5,308.24a5.66,5.66,0,0,0,3-4.87,15.06,15.06,0,0,0-1.14-5.86,182.11,182.11,0,0,0-8.52-19.3l-.8,4.85a42.24,42.24,0,0,0-1.21,16.52,13.09,13.09,0,0,0,2.32,6.67C193.65,308.11,196.32,309.21,198.5,308.24Z"/><path class="cls-20" d="M191.79,278.2c3.65,1.69,8.44,4.26,12.18,6a21.4,21.4,0,0,1,9.42,7.74c1.1,1.77,1.76,4,1,6-1.15,3-5.25,3.93-8.24,2.72s-5.07-3.9-7-6.52a40.1,40.1,0,0,1-7.41-15.91"/><path class="cls-6" d="M192.72,289.26c.39-.29.86-.6.93-2a34.81,34.81,0,0,0-.1-6.1,20.06,20.06,0,0,0,2.77,5.28,3.14,3.14,0,0,0,2.78,1.15c.79-.32.78-1.43.54-2.24a10.4,10.4,0,0,0-4.77-6,10,10,0,0,0,7-.3c.54-.23,1.12-.59,1.2-1.17a1.23,1.23,0,0,0-.66-1.16,3.11,3.11,0,0,0-1.35-.35,16.82,16.82,0,0,0-9.22,1.8,26.08,26.08,0,0,0-1.84,9.86,1.45,1.45,0,0,0,1,1.32A2.28,2.28,0,0,0,192.72,289.26Z"/><path class="cls-19" d="M125.85,120.84a5.66,5.66,0,0,0-5.13,2.53,14.84,14.84,0,0,0-2.15,5.57,183.31,183.31,0,0,0-3,20.88l3.26-3.68a42.45,42.45,0,0,0,9.81-13.35,13.22,13.22,0,0,0,1.57-6.89C129.89,123.53,128.21,121.18,125.85,120.84Z"/><path class="cls-19" d="M115.39,114.74a5.66,5.66,0,0,0-4.4,3.66,15,15,0,0,0-.79,5.92,182.88,182.88,0,0,0,1.94,21l2.3-4.34a42.6,42.6,0,0,0,6.41-15.28,13.11,13.11,0,0,0-.09-7.06C119.94,116.41,117.76,114.52,115.39,114.74Z"/><path class="cls-19" d="M104,120.22a5.65,5.65,0,0,0-2.72,5,14.58,14.58,0,0,0,1.47,5.79,180.45,180.45,0,0,0,9.59,18.79l.53-4.89a42.35,42.35,0,0,0,.27-16.56,13.06,13.06,0,0,0-2.7-6.53C108.86,120.08,106.13,119.13,104,120.22Z"/><path class="cls-20" d="M109.53,150.66a42.48,42.48,0,0,1-11.08-12.31,13,13,0,0,1-2.25-6.69c0-2.38,1.47-4.89,3.78-5.46a5.68,5.68,0,0,1,5.36,2,14.91,14.91,0,0,1,2.69,5.33A181.69,181.69,0,0,1,113.14,154"/><path class="cls-20" d="M132,129.7a5.64,5.64,0,0,0-5.66.78,14.93,14.93,0,0,0-3.8,4.61A180.42,180.42,0,0,0,113.11,154l4.25-2.47a42.47,42.47,0,0,0,13.51-9.59,13.12,13.12,0,0,0,3.66-6C135,133.52,134.16,130.76,132,129.7Z"/><path class="cls-20" d="M113.14,154c-1-3.88-2.09-9.21-3.12-13.22a21.52,21.52,0,0,1,0-12.19c.66-2,2-3.91,3.94-4.57,3.06-1,6.38,1.54,7.35,4.62s.22,6.4-.59,9.52A40.06,40.06,0,0,1,113.14,154"/><path class="cls-6" d="M121.08,146.25a2.08,2.08,0,0,0-2.11.52,34.51,34.51,0,0,0-4.64,4,19.62,19.62,0,0,0,2.31-5.49,3.16,3.16,0,0,0-.89-2.88c-.74-.4-1.59.31-2.06,1a10.34,10.34,0,0,0-1.56,7.48,10.1,10.1,0,0,0-4.68-5.19,1.73,1.73,0,0,0-1.66-.18,1.22,1.22,0,0,0-.48,1.24,3.08,3.08,0,0,0,.59,1.27,16.82,16.82,0,0,0,7.26,6,26.17,26.17,0,0,0,8.77-4.86,1.46,1.46,0,0,0,.42-1.58A2.25,2.25,0,0,0,121.08,146.25Z"/><path class="cls-14" d="M95.19,283.38a5.68,5.68,0,0,0,5-2.84,14.94,14.94,0,0,0,1.8-5.69,182.4,182.4,0,0,0,1.77-21l-3,3.87a42.55,42.55,0,0,0-9,13.92,13,13,0,0,0-1.15,7C91,280.94,92.81,283.18,95.19,283.38Z"/><path class="cls-14" d="M106,288.83a5.68,5.68,0,0,0,4.17-3.92,14.93,14.93,0,0,0,.42-6,182,182,0,0,0-3.21-20.85l-2,4.48a42.3,42.3,0,0,0-5.47,15.63,13.16,13.16,0,0,0,.51,7.05C101.35,287.44,103.64,289.2,106,288.83Z"/><path class="cls-14" d="M117,282.67a5.68,5.68,0,0,0,2.41-5.19,15,15,0,0,0-1.82-5.69,184,184,0,0,0-10.72-18.16l-.23,4.91a42.28,42.28,0,0,0,.73,16.54,13,13,0,0,0,3.09,6.35C112.19,283.11,115,283.89,117,282.67Z"/><path class="cls-15" d="M109.66,252.62a42.39,42.39,0,0,1,11.81,11.61,13.12,13.12,0,0,1,2.66,6.55c.11,2.38-1.18,5-3.45,5.68a5.65,5.65,0,0,1-5.47-1.68,14.87,14.87,0,0,1-3-5.15,180.59,180.59,0,0,1-6.34-20.12"/><path class="cls-15" d="M88.49,274.91a5.65,5.65,0,0,0,5.6-1.12A14.87,14.87,0,0,0,97.6,269a180.21,180.21,0,0,0,8.29-19.39l-4.09,2.72a42.3,42.3,0,0,0-12.9,10.39,13.12,13.12,0,0,0-3.29,6.25C85.27,271.28,86.29,274,88.49,274.91Z"/><path class="cls-15" d="M105.86,249.51c1.26,3.81,2.65,9.07,3.92,13a21.63,21.63,0,0,1,.77,12.17c-.55,2-1.73,4-3.66,4.8-3,1.21-6.46-1.15-7.61-4.16s-.62-6.38,0-9.54a40,40,0,0,1,6.57-16.27"/><path class="cls-6" d="M98.41,257.73c.48.1,1,.22,2.07-.65a35.06,35.06,0,0,0,4.39-4.24,20,20,0,0,0-2,5.62,3.11,3.11,0,0,0,1.06,2.82c.76.36,1.57-.4,2-1.13a10.39,10.39,0,0,0,1.1-7.56,10.08,10.08,0,0,0,5,4.9,1.73,1.73,0,0,0,1.66.08,1.23,1.23,0,0,0,.41-1.27,3.27,3.27,0,0,0-.67-1.24,16.88,16.88,0,0,0-7.61-5.5,26.2,26.2,0,0,0-8.46,5.38,1.46,1.46,0,0,0-.32,1.61A2.29,2.29,0,0,0,98.41,257.73Z"/><path class="cls-14" d="M78.86,86.53a5.66,5.66,0,0,0-4.79,3.12,14.91,14.91,0,0,0-1.46,5.79,180.91,180.91,0,0,0-.52,21.09l2.79-4A42.3,42.3,0,0,0,83,98.06a13,13,0,0,0,.74-7C83.2,88.71,81.25,86.58,78.86,86.53Z"/><path class="cls-14" d="M67.75,81.72a5.68,5.68,0,0,0-3.93,4.17,14.76,14.76,0,0,0-.07,6,180,180,0,0,0,4.44,20.63L70,107.89A42.27,42.27,0,0,0,74.48,92a13,13,0,0,0-.93-7C72.47,82.83,70.08,81.22,67.75,81.72Z"/><path class="cls-14" d="M57.11,88.53A5.66,5.66,0,0,0,55,93.85a14.92,14.92,0,0,0,2.15,5.57,183.33,183.33,0,0,0,11.78,17.5L68.88,112a42.3,42.3,0,0,0-1.72-16.47,13.06,13.06,0,0,0-3.46-6.16C61.91,87.8,59.08,87.19,57.11,88.53Z"/><path class="cls-15" d="M66.24,118.08a42.29,42.29,0,0,1-12.48-10.89,13,13,0,0,1-3-6.37c-.25-2.37.88-5,3.11-5.88a5.66,5.66,0,0,1,5.56,1.35,15,15,0,0,1,3.31,5A180.93,180.93,0,0,1,70.22,121"/><path class="cls-15" d="M86.06,94.58A5.67,5.67,0,0,0,80.52,96a15,15,0,0,0-3.21,5,182.48,182.48,0,0,0-7.13,19.85l3.93-3a42.49,42.49,0,0,0,12.26-11.14,13.05,13.05,0,0,0,2.91-6.43C89.48,98,88.3,95.38,86.06,94.58Z"/><path class="cls-15" d="M70.22,121c-1.48-3.74-3.18-8.9-4.68-12.75a21.56,21.56,0,0,1-1.49-12.1c.42-2,1.48-4.12,3.36-5,2.92-1.39,6.52.76,7.85,3.7s1,6.33.55,9.52A40,40,0,0,1,70.22,121"/><path class="cls-6" d="M77.17,112.32c-.48-.07-1-.16-2,.77A35.54,35.54,0,0,0,71,117.58a19.64,19.64,0,0,0,1.63-5.73,3.14,3.14,0,0,0-1.22-2.75c-.79-.31-1.55.5-1.93,1.25a10.4,10.4,0,0,0-.65,7.61,10.08,10.08,0,0,0-5.27-4.59,1.71,1.71,0,0,0-1.67,0,1.23,1.23,0,0,0-.33,1.29,3.22,3.22,0,0,0,.74,1.19,16.78,16.78,0,0,0,7.93,5A26.1,26.1,0,0,0,78.36,115a1.45,1.45,0,0,0,.22-1.62A2.27,2.27,0,0,0,77.17,112.32Z"/><path class="cls-7" d="M170.06,273.89c5.27,0,13.53-1.12,18.68,1.63,2.36,1.26,4.66,3.31,4.78,6"/><path class="cls-7" d="M102.93,173.16s10.17-6.83,10.23-19.74"/><path class="cls-4" d="M19.43,253.51A106.75,106.75,0,0,0,31,273c4.63,4,9,2.29,11.82.45,3.82-2.48,5.94-6.56,4.74-10.85,3.31,1.4,7-.7,8.36-5.71,1.24-4.55-3.7-8-3.7-8A9.76,9.76,0,0,0,63.8,233.52c3.1,1.09,6.71-1.28,7.57-4.45s-.61-6.66-3.05-8.86a17.8,17.8,0,0,0-8.92-3.9S25.24,222.88,25,223.23s-9.54,17.15-9.54,17.15Z"/><path class="cls-5" d="M10.89,232.28c12.59-27.73,20.05-26.23,24.39-28.4a62.06,62.06,0,0,1,23.87.41,20,20,0,0,1,7.65,2.79,8.35,8.35,0,0,1,3.86,6.85c-.11,3-2.4,5.61-5.11,6.95s-5.77,1.68-8.77,2A4.12,4.12,0,0,1,60,226.18a8.93,8.93,0,0,1-.58,4.83,12.29,12.29,0,0,1-4.61,6.48c-3.92,2.49-9,1.3-13.51,0-8.43-2.41-17.43-8.52-30.41-5.23"/><path class="cls-5" d="M20.5,216.76C1.29,240.39,6,247.24,6.86,254c2.36,8.05,5,11.83,10.1,18.49A19.8,19.8,0,0,0,22.87,278a8.33,8.33,0,0,0,7.85.41c2.65-1.45,4-4.65,4-7.67s-1.08-5.92-2.13-8.75a4.09,4.09,0,0,0,4.4,1.41A8.92,8.92,0,0,0,41,260.76a12.22,12.22,0,0,0,3.74-7c.49-4.62-2.87-8.67-6-12.11-5.91-6.46-15.39-11.8-18.23-24.88"/><path class="cls-6" d="M18.26,238.2c1.17-.47,1.48-1.74,1.62-2.89a23.2,23.2,0,0,0-.29-7.48,11.85,11.85,0,0,0,10.2.52,14.05,14.05,0,0,0-10.13-5,24.73,24.73,0,0,0,5.13-6.89c.38-.74.67-1.73.08-2.31s-1.62-.24-2.35.18a20.34,20.34,0,0,0-8.24,9.21l.57-1.17c-3.49,4.25-5.75,9.52-5.25,15,2.32-1.38,3.94-5.41,5.12-7.84-.47,1.81-.64,5.74.35,7.43A2.65,2.65,0,0,0,18.26,238.2Z"/><path class="cls-21" d="M.09,218.12a33.47,33.47,0,0,1,17.19,8.23"/><path class="cls-7" d="M68.84,118s2.09,15.46-5.36,24.6-18.59,14.61-18.59,14.61"/><path class="cls-21" d="M105.31,251.14a118.39,118.39,0,0,0,1.47-43.27"/></g></g></svg>