<?xml version="1.0" encoding="UTF-8" standalone="no"?>
<svg
   xmlns:dc="http://purl.org/dc/elements/1.1/"
   xmlns:cc="http://creativecommons.org/ns#"
   xmlns:rdf="http://www.w3.org/1999/02/22-rdf-syntax-ns#"
   xmlns:svg="http://www.w3.org/2000/svg"
   xmlns="http://www.w3.org/2000/svg"
   viewBox="0 0 360.77332 650.01331"
   height="650.01331"
   width="360.77332"
   xml:space="preserve"
   id="svg2"
   version="1.1"><metadata
     id="metadata8"><rdf:RDF><cc:Work
         rdf:about=""><dc:format>image/svg+xml</dc:format><dc:type
           rdf:resource="http://purl.org/dc/dcmitype/StillImage" /></cc:Work></rdf:RDF></metadata><defs
     id="defs6" /><g
     transform="matrix(1.3333333,0,0,-1.3333333,0,650.01333)"
     id="g10"><g
       transform="scale(0.1)"
       id="g12"><path
         id="path14"
         style="fill:#ffffff;fill-opacity:1;fill-rule:nonzero;stroke:none"
         d="m 2145.23,3647.3 c -205.13,59.23 -509.16,96.03 -793.45,96.03 -0.07,0 -0.56,0 -0.63,0 -266.42,-1.58 -577.337,-39.2 -792.095,-95.83 -14.262,-3.77 -24.203,-16.66 -24.203,-31.41 V 2090.74 c 0,-306.81 244.371,-552.78 594.268,-598.17 72.11,-9.36 146.66,-14.04 221.58,-14.04 74.88,0 150.13,4.67 223.65,14.02 349.94,44.49 594.34,290.46 594.34,598.19 v 1525.35 c 0,14.47 -9.57,27.19 -23.46,31.21" /><path
         id="path16"
         style="fill:#254aa5;fill-opacity:1;fill-rule:nonzero;stroke:none"
         d="m 1361.4,2931.86 c -1.29,-2.04 -2.66,-3.96 -4.09,-5.76 -0.47,-0.58 -0.98,-1.07 -1.46,-1.63 -1,-1.16 -1.99,-2.33 -3.05,-3.37 -0.62,-0.61 -1.29,-1.12 -1.92,-1.68 -0.99,-0.88 -1.97,-1.78 -3.01,-2.57 -0.72,-0.54 -1.49,-0.99 -2.23,-1.49 -1.02,-0.68 -2.03,-1.38 -3.1,-1.97 -0.81,-0.46 -1.66,-0.82 -2.5,-1.22 -1.07,-0.51 -2.13,-1.05 -3.24,-1.47 -0.88,-0.35 -1.81,-0.6 -2.72,-0.89 -1.13,-0.36 -2.25,-0.73 -3.42,-1 -0.96,-0.23 -1.96,-0.38 -2.95,-0.55 -1.18,-0.21 -2.36,-0.42 -3.59,-0.54 -1.03,-0.11 -2.11,-0.14 -3.17,-0.19 -1.6,-0.07 -3.18,-0.17 -4.83,-0.11 -12.61,1.66 -22.26,6.72 -29.81,17 -20.77,28.3 -41.64,56.52 -62.55,84.73 -2.19,2.95 -4.37,5.91 -6.56,8.86 -6.62,8.93 -13.23,17.86 -19.85,26.78 -12.56,16.94 -25.13,33.87 -37.67,50.83 -10.75,14.51 -18.91,29.93 -8.48,47.81 10.69,18.32 28.03,25.61 48.39,25.61 0.31,0 0.62,-0.01 0.93,-0.01 10.87,-0.12 19.83,-5.07 26.44,-14.2 17.12,-23.61 34.27,-47.2 51.42,-70.79 5.15,-7.08 10.28,-14.16 15.43,-21.24 8.08,-11.11 16.14,-22.23 24.22,-33.34 13.66,-18.79 27.31,-37.58 40.95,-56.39 9.52,-13.12 11.35,-27.08 2.42,-41.21 z m 462.16,-540.84 c 8.08,-11.11 16.15,-22.23 24.22,-33.35 13.66,-18.79 27.31,-37.58 40.95,-56.38 9.52,-13.12 11.36,-27.08 2.42,-41.22 -10.13,-16.02 -24.57,-24.47 -43.01,-24.47 -0.75,0 -1.51,0.01 -2.27,0.04 -12.61,1.66 -22.26,6.72 -29.8,16.99 -20.77,28.3 -41.65,56.53 -62.55,84.73 -2.92,3.95 -5.83,7.87 -8.75,11.81 -5.89,7.95 -11.78,15.89 -17.67,23.83 -12.56,16.95 -25.12,33.88 -37.67,50.83 -2.69,3.64 -5.22,7.32 -7.33,11.09 -2.26,4.04 -3.99,8.18 -5.01,12.44 -1.8,7.65 -1.16,15.68 3.87,24.3 0.09,0.15 0.2,0.28 0.3,0.44 1.26,2.13 2.61,4.13 4.05,5.95 0.54,0.69 1.16,1.25 1.73,1.9 1.05,1.2 2.08,2.44 3.21,3.5 0.7,0.66 1.47,1.19 2.2,1.8 1.09,0.9 2.14,1.85 3.29,2.64 0.82,0.56 1.7,1 2.55,1.52 1.14,0.68 2.25,1.41 3.43,2 0.92,0.45 1.9,0.78 2.84,1.18 1.2,0.51 2.38,1.05 3.62,1.47 0.99,0.33 2.04,0.56 3.06,0.83 1.26,0.35 2.5,0.73 3.79,0.99 1.09,0.22 2.21,0.34 3.32,0.5 1.3,0.19 2.58,0.42 3.91,0.55 1.15,0.1 2.35,0.11 3.52,0.16 1.5,0.07 2.96,0.18 4.49,0.16 10.88,-0.11 19.83,-5.08 26.45,-14.2 16.57,-22.87 33.19,-45.72 49.8,-68.56 5.68,-7.82 11.35,-15.66 17.04,-23.47 z m -999.747,526.47 c 1.347,2.31 2.8,4.44 4.355,6.4 0.508,0.65 1.094,1.18 1.625,1.79 1.078,1.24 2.148,2.51 3.316,3.61 0.688,0.65 1.45,1.17 2.168,1.77 1.094,0.91 2.161,1.87 3.321,2.67 0.808,0.56 1.695,0.99 2.535,1.5 1.14,0.69 2.258,1.43 3.449,2.02 0.926,0.45 1.906,0.79 2.856,1.18 1.187,0.51 2.355,1.05 3.589,1.46 1.016,0.35 2.086,0.57 3.125,0.85 1.243,0.34 2.461,0.72 3.743,0.98 1.085,0.22 2.226,0.34 3.343,0.5 1.289,0.19 2.563,0.42 3.887,0.55 1.16,0.1 2.363,0.11 3.551,0.16 1.476,0.06 2.937,0.18 4.453,0.16 10.875,-0.12 19.832,-5.08 26.449,-14.21 16.707,-23.04 33.445,-46.06 50.192,-69.09 6.789,-9.35 13.585,-18.71 20.382,-28.07 3.395,-4.68 6.789,-9.35 10.184,-14.02 17.094,-23.52 34.184,-47.04 51.254,-70.57 9.52,-13.12 11.35,-27.08 2.42,-41.22 -10.14,-16.03 -24.57,-24.47 -43.037,-24.47 -0.743,0 -1.493,0.01 -2.25,0.04 -12.602,1.66 -22.254,6.72 -29.797,16.99 -7.09,9.66 -14.25,19.28 -21.36,28.93 -10.882,14.76 -21.75,29.51 -32.66,44.24 -4.058,5.48 -8.117,10.95 -12.176,16.43 -20.148,27.2 -40.308,54.39 -60.449,81.6 -5.371,7.26 -10.097,14.74 -12.172,22.65 -2.078,7.9 -1.511,16.23 3.704,25.17 z M 2012.56,1741.29 1628.5,2238.52 c -2.07,-1.66 -4.14,-3.32 -6.22,-4.97 -15.08,3.09 -35.09,12.39 -42.66,6.15 -7.63,-6.28 -2.34,-27.72 -2.18,-43.09 -3,-2.58 -6.08,-5.09 -9.06,-7.69 -0.08,-0.07 -0.08,-0.07 -0.15,-0.12 -0.37,-0.03 -0.66,-0.13 -1.03,-0.3 -5.36,-2 -10.65,-4.08 -15.95,-6.16 -4.54,-1.76 -8.94,-3.52 -13.37,-5.44 -0.43,-0.17 -0.84,-0.36 -1.26,-0.53 l -4.85,6.68 -20.42,28.11 -11.6,15.96 c -12.85,17.69 -25.71,35.38 -38.55,53.08 -14.07,19.41 -34.63,30.23 -57.92,30.47 l -1.33,0.01 c -36.15,0 -65.4,-16.02 -82.39,-45.13 -16.55,-28.37 -12.91,-59.01 10.83,-91.08 l 40.86,-55.17 17.63,-23.79 c -12.13,-8.37 -24.13,-17.08 -35.93,-26.19 -10.06,-7.77 -19.78,-15.65 -29.32,-23.77 -1.74,-1.48 -3.49,-2.96 -5.18,-4.51 -2.61,-2.14 -5.16,-4.36 -7.57,-6.6 -4.46,-3.82 -8.79,-7.79 -13.12,-11.77 l -2.65,-2.42 c -5.72,-5.42 -11.52,-10.91 -17.12,-16.48 -9.47,-9.38 -18.61,-19.05 -27.6,-28.86 -29.88,-15.31 -66.01,-25.26 -84.56,-50.31 -19.16,-25.88 -17.36,-65.14 -24.07,-99.04 -4.25,-7.48 -8.45,-14.98 -12.47,-22.59 -3.84,-7.37 -7.71,-14.88 -11.3,-22.42 -3.43,-6.92 -6.74,-13.85 -9.83,-20.89 -3.57,-7.9 -7.06,-15.87 -10.36,-23.95 -2.48,-6.05 -4.97,-12.1 -7.24,-18.25 -2.42,-6.14 -4.69,-12.29 -6.83,-18.45 -2.28,-6.15 -4.41,-12.32 -6.41,-18.51 -3.22,-9.74 -6.22,-19.55 -9.07,-29.4 -19.1,-27.52 -50.29,-52.01 -55.75,-82.85 -1.63,-9.2 -0.79,-18.66 1.24,-28.25 -108.51,30.91 -205.529,84.19 -280.338,155.09 -106.414,100.87 -162.656,230.73 -162.656,375.52 v 327.63 c 1.703,4.38 3.41,8.76 5.188,13.1 3.308,8.08 6.804,16.05 10.367,23.95 3.097,7.03 6.402,13.97 9.836,20.89 3.586,7.55 7.457,15.05 11.301,22.41 4.019,7.62 8.218,15.13 12.468,22.6 6.707,33.91 4.907,73.15 24.063,99.03 18.547,25.06 54.687,35.01 84.57,50.32 8.988,9.82 18.129,19.49 27.594,28.85 5.597,5.59 11.398,11.07 17.121,16.5 l 2.652,2.42 c 4.332,3.97 8.66,7.94 13.121,11.76 2.407,2.25 4.953,4.46 7.571,6.61 1.687,1.55 3.433,3.02 5.183,4.5 9.532,8.12 19.25,16.01 29.313,23.77 9.504,7.34 19.152,14.37 28.89,21.2 l 1.118,-1.51 3.55,-4.79 8.621,-11.65 c 9.055,-12.22 18.086,-24.47 27.122,-36.72 l 5.488,-7.45 8.535,-11.54 c 4.262,-5.77 8.527,-11.54 12.766,-17.31 13.656,-18.59 32.625,-29.6 56.402,-32.73 l 1.848,-0.25 1.859,-0.06 c 1.234,-0.05 2.469,-0.07 3.68,-0.07 31.757,0 58.857,15.2 76.317,42.81 17.19,27.2 15.79,58.31 -3.83,85.36 -17.09,23.55 -34.18,47.08 -51.28,70.61 l -5.6,7.71 c 3.13,1.33 6.28,2.67 9.44,3.98 4.43,1.9 8.84,3.67 13.38,5.43 5.3,2.08 10.58,4.16 15.94,6.16 0.38,0.17 0.67,0.27 1.03,0.29 0.08,0.06 0.08,0.06 0.16,0.13 2.97,2.6 6.06,5.11 9.05,7.7 -0.16,15.36 -5.44,36.81 2.19,43.09 7.56,6.24 27.57,-3.07 42.65,-6.15 2.08,1.64 4.16,3.3 6.22,4.96 l -535.894,693.82 v 20.8 c 216.758,53.9 519.504,89.32 780.584,90.87 h 0.45 c 278.26,0 574.29,-34.4 781.03,-90.29 V 3261.9 c -3.74,1.25 -7.47,2.46 -11.2,3.78 3.78,-1.41 7.49,-2.76 11.2,-4.2 v -0.01 c -4.04,1.56 -8.1,3.03 -12.21,4.55 -0.42,0.05 -0.82,0.25 -1.15,0.37 -0.69,0.22 -1.22,0.43 -1.91,0.66 -7.23,2.55 -14.57,5.06 -21.85,7.34 -16.58,5.39 -33.24,10.22 -50.04,14.43 -5.56,1.34 -11.04,2.76 -16.61,3.97 -1.03,0.34 -2.12,0.63 -3.38,0.78 -6.06,1.35 -12.11,2.69 -18.2,3.89 -3.35,0.69 -6.73,1.17 -10.09,1.81 -19.86,13.58 -37.29,43.1 -58.86,45.36 -21.11,2.2 -43.75,-21.94 -65.55,-31.56 -7,0.24 -13.99,0.63 -20.99,0.69 -19.58,0.18 -39.2,-0.42 -58.83,-1.65 -6.5,-0.37 -13,-0.88 -19.52,-1.53 -6.52,-0.51 -13.04,-1.16 -19.58,-1.95 -6.53,-0.64 -13.01,-1.51 -19.5,-2.37 -8.64,-1.17 -17.24,-2.53 -25.78,-3.99 -7.6,-1.22 -15.13,-2.65 -22.71,-4.23 -9.28,-1.86 -18.5,-3.98 -27.71,-6.16 -37.79,2.15 -78.36,13.83 -111.6,1.07 -32.04,-12.29 -53.93,-45.9 -79.22,-72.36 -12.77,-6.69 -25.44,-13.6 -37.86,-20.96 -6.82,-4.01 -13.58,-8.24 -20.28,-12.4 -1,-0.66 -2,-1.3 -3.02,-1.95 -4.93,-3.19 -9.87,-6.38 -14.7,-9.73 -2.77,-1.76 -5.56,-3.66 -8.3,-5.66 -1.92,-1.24 -3.79,-2.55 -5.65,-3.87 -10.28,-7.18 -20.36,-14.59 -30.42,-22.37 -13.69,-10.57 -26.82,-21.61 -39.68,-32.87 l -5.83,8.03 c -14.33,19.7 -28.65,39.41 -42.94,59.13 -14.04,19.38 -34.6,30.2 -57.89,30.46 l -1.36,0.01 c -36.15,0 -65.41,-16.04 -82.39,-45.14 -16.55,-28.37 -12.91,-59.01 10.83,-91.08 10.09,-13.63 20.21,-27.27 30.32,-40.9 l 7.38,-9.95 19.83,-26.76 3.28,-4.43 3.15,-4.24 c -1.38,-1.85 -2.78,-3.66 -4.15,-5.56 -3.35,-4.6 -6.78,-9.25 -10,-13.86 -0.24,-0.33 -0.43,-0.59 -0.53,-0.93 -0.08,-0.07 -0.08,-0.07 -0.16,-0.12 -3.28,-2.22 -6.49,-4.57 -9.74,-6.82 -14.84,4.03 -34.25,14.56 -42.25,8.77 -7.96,-5.75 -4,-27.46 -4.82,-42.82 -3.35,-2.53 -6.75,-4.96 -10.09,-7.53 -1.21,-0.95 -2.41,-1.92 -3.61,-2.89 l 521.86,-675.63 c 1.2,0.96 2.39,1.95 3.61,2.88 3.33,2.58 6.73,5 10.08,7.54 0.83,15.36 -3.12,37.07 4.82,42.82 8.01,5.8 27.42,-4.74 42.25,-8.77 3.26,2.25 6.47,4.59 9.75,6.82 0.07,0.06 0.07,0.06 0.15,0.11 0.11,0.35 0.29,0.6 0.54,0.93 3.21,4.62 6.65,9.27 9.99,13.86 2.85,3.96 5.67,7.78 8.64,11.58 0.31,0.4 0.62,0.8 0.92,1.2 l 2.65,-3.57 c 20.85,-28.15 41.7,-56.33 62.43,-84.59 13.64,-18.58 32.62,-29.59 56.4,-32.71 l 1.84,-0.25 1.86,-0.06 c 1.25,-0.05 2.48,-0.07 3.71,-0.07 31.75,0 58.84,15.19 76.29,42.8 17.19,27.21 15.8,58.32 -3.84,85.38 -13.63,18.8 -27.3,37.6 -40.97,56.4 l -9.72,13.4 -14.5,19.95 -7.44,10.24 -9.62,13.24 -2.39,3.3 c 10.78,9.26 21.83,18.3 33.19,27.08 10.06,7.77 20.15,15.18 30.42,22.36 1.87,1.32 3.73,2.63 5.66,3.87 2.73,1.99 5.52,3.9 8.31,5.66 4.81,3.35 9.75,6.54 14.7,9.73 1,0.64 2,1.29 3,1.95 6.7,4.16 13.47,8.39 20.29,12.4 12.42,7.36 25.08,14.27 37.86,20.97 25.29,26.45 47.18,60.06 79.22,72.35 19.56,7.51 41.65,6.53 64.21,4.05 v -550.76 c 0,-124.14 -43.71,-237.49 -120.25,-329.32 z m -590.73,375.89 c -19.93,26.9 -39.88,53.8 -59.8,80.72 -10.74,14.51 -18.9,29.93 -8.47,47.81 10.7,18.32 28.03,25.61 48.39,25.61 0.31,0 0.61,-0.01 0.92,-0.01 10.88,-0.12 19.84,-5.08 26.46,-14.2 16.71,-23.06 33.45,-46.08 50.18,-69.11 6.81,-9.36 13.62,-18.74 20.42,-28.1 3.39,-4.66 6.77,-9.33 10.15,-13.99 17.1,-23.51 34.19,-47.03 51.26,-70.56 2.38,-3.28 4.28,-6.62 5.65,-9.99 4.12,-10.13 3.47,-20.63 -3.23,-31.23 -1.3,-2.04 -2.66,-3.96 -4.09,-5.75 -0.47,-0.59 -0.98,-1.08 -1.45,-1.64 -1.01,-1.16 -2.01,-2.33 -3.06,-3.37 -0.62,-0.6 -1.27,-1.11 -1.9,-1.66 -0.99,-0.89 -1.98,-1.79 -3.02,-2.58 -0.73,-0.55 -1.49,-0.99 -2.23,-1.49 -1.02,-0.68 -2.03,-1.38 -3.11,-1.98 -0.81,-0.45 -1.66,-0.81 -2.5,-1.21 -1.06,-0.52 -2.12,-1.04 -3.23,-1.47 -0.89,-0.35 -1.81,-0.61 -2.72,-0.89 -1.13,-0.36 -2.25,-0.74 -3.42,-1.01 -0.96,-0.22 -1.95,-0.37 -2.94,-0.55 -1.19,-0.2 -2.37,-0.42 -3.6,-0.53 -1.03,-0.11 -2.09,-0.14 -3.16,-0.19 -1.6,-0.08 -3.19,-0.17 -4.85,-0.12 -12.61,1.66 -22.27,6.73 -29.81,17 -7.09,9.66 -14.24,19.28 -21.35,28.93 -10.88,14.76 -21.75,29.51 -32.67,44.24 -4.27,5.77 -8.54,11.54 -12.82,17.32 z m 754.08,1570.2 c -213.06,61.53 -528.85,99.75 -824.13,99.75 -0.07,0 -0.58,0 -0.65,0 -276.73,-1.64 -599.673,-40.72 -822.735,-99.54 -14.813,-3.91 -25.133,-17.31 -25.133,-32.63 V 2070.61 c 0,-318.66 253.816,-574.16 617.248,-621.31 74.9,-9.71 152.33,-14.57 230.15,-14.57 77.77,0 155.93,4.86 232.3,14.56 363.47,46.2 617.34,301.7 617.34,621.32 v 1584.35 c 0,15.03 -9.95,28.24 -24.39,32.42" /><path
         id="path18"
         style="fill:#254aa5;fill-opacity:1;fill-rule:nonzero;stroke:none"
         d="m 2641.46,1675.1 c 20,112.23 38.85,230.91 64.38,375.6 -111.5,-72.18 -238.56,-130.07 -374.53,-163.1 14.21,-2.47 28.76,-5.27 42.88,-8.46 90.32,-20.45 147.47,-50.48 149.86,-51.75 0.45,-0.23 0.84,-0.59 1.28,-0.85 1.24,-0.73 2.43,-1.48 3.55,-2.36 0.61,-0.48 1.18,-1 1.76,-1.51 1.03,-0.93 2.03,-1.89 2.95,-2.95 0.5,-0.58 0.97,-1.19 1.44,-1.81 0.85,-1.12 1.63,-2.27 2.34,-3.49 0.38,-0.65 0.73,-1.33 1.06,-2.01 0.63,-1.28 1.17,-2.58 1.63,-3.95 0.14,-0.37 0.34,-0.71 0.46,-1.09 0.12,-0.39 0.13,-0.79 0.23,-1.18 0.35,-1.32 0.61,-2.65 0.8,-4.02 0.12,-0.89 0.21,-1.78 0.26,-2.69 0.04,-0.64 0.18,-1.24 0.18,-1.89 0,-0.8 -0.13,-1.55 -0.19,-2.32 -0.04,-0.61 -0.08,-1.21 -0.15,-1.81 -0.07,-0.51 -0.05,-1.05 -0.13,-1.57 l -27.67,-218.97 c 53.9,30.56 97.91,66.84 127.61,102.18" /><path
         id="path20"
         style="fill:#254aa5;fill-opacity:1;fill-rule:nonzero;stroke:none"
         d="m 64.3789,1675.1 c 29.6992,-35.34 73.7151,-71.62 127.6051,-102.18 l -27.847,220.45 c -0.02,0.14 0.008,0.28 -0.012,0.43 -0.129,1.12 -0.074,2.24 -0.09,3.36 -0.015,1.13 -0.101,2.25 -0.008,3.34 0.078,0.86 0.301,1.71 0.442,2.57 0.222,1.33 0.406,2.67 0.785,3.95 0.031,0.12 0.031,0.23 0.066,0.35 0.215,0.69 0.575,1.33 0.836,2 0.469,1.26 0.918,2.52 1.532,3.7 0.429,0.84 0.984,1.59 1.48,2.39 0.648,1.04 1.277,2.09 2.043,3.04 0.598,0.76 1.293,1.43 1.957,2.14 0.828,0.88 1.641,1.76 2.559,2.55 0.726,0.63 1.523,1.14 2.304,1.7 1,0.72 1.996,1.44 3.086,2.05 0.235,0.14 0.434,0.32 0.672,0.45 2.387,1.27 59.531,31.3 149.859,51.75 14.118,3.19 28.668,5.99 42.879,8.46 -135.964,33.03 -263.023,90.92 -374.53090625,163.1 C 25.5352,1906.01 44.3789,1787.33 64.3789,1675.1" /><path
         id="path22"
         style="fill:#254aa5;fill-opacity:1;fill-rule:nonzero;stroke:none"
         d="m 2474.86,1802.62 c 0.46,3.13 1.38,6.11 2.65,8.9 -24.51,10.09 -62.63,23.81 -110.77,34.71 -64.06,14.5 -139.66,21.27 -139.66,21.27 l 84.15,-302.11 c 93.11,61.65 147.32,140.54 163.63,237.23" /><path
         id="path24"
         style="fill:#254aa5;fill-opacity:1;fill-rule:nonzero;stroke:none"
         d="m 228.23,1811.48 c 1.188,-2.62 2.172,-5.36 2.665,-8.33 15.953,-95.56 71.003,-174.8 163.941,-236.93 l 83.926,301.28 c 0,0 -75.602,-6.77 -139.664,-21.27 -48.192,-10.92 -86.36,-24.65 -110.868,-34.75" /><path
         id="path26"
         style="fill:#254aa5;fill-opacity:1;fill-rule:nonzero;stroke:none"
         d="m 2457.63,1397.11 c 16.86,133.49 33.73,266.99 50.6,400.48 -59.24,-354.55 -574.58,-410.2 -850.24,-426.8 -99.53,-5.99 -201.53,-8.94 -303.46,-8.94 -103.16,0 -206.23,3.02 -306.69,8.94 -274.391,16.18 -791.067,72.42 -850.227,426.8 16.867,-133.49 33.727,-266.99 50.594,-400.48 55.664,-338.9 537.902,-419.571 813.753,-429.739 101.7,-3.742 203.59,-5.93 305.2,-5.93 92.58,0 184.92,1.821 276.72,5.93 274.39,12.309 757.58,87.229 813.75,429.739" /><path
         id="path28"
         style="fill:#fab20b;fill-opacity:1;fill-rule:nonzero;stroke:none"
         d="m 1542.37,3983.96 c 0.7,12.52 -4.09,24.14 -12.37,32.77 -7.46,7.76 -6.88,19.55 1.31,26.53 9.12,7.78 15.1,18.81 15.79,31.34 1.36,25.03 -19.86,43.62 -46.88,47.56 -88.58,12.92 -213.24,12.94 -295.68,0 -26.97,-4.23 -48.22,-22.52 -46.88,-47.56 0.68,-12.53 6.66,-23.56 15.78,-31.34 8.19,-6.99 8.76,-18.78 1.31,-26.55 -8.27,-8.62 -13.04,-20.23 -12.35,-32.75 -26.24,-1.39 -46.2,-23.07 -44.49,-48.07 1.69,-25 23.71,-43.9 49.23,-42.56 1.36,-25.05 22.94,-44.25 48.06,-43.23 30.48,1.19 60.97,1.99 91.45,2.39 30.49,0.39 60.97,0.39 91.47,0 30.48,-0.4 60.96,-1.2 91.43,-2.39 25.26,-0.99 46.68,18.22 48.08,43.23 25.45,-1.31 47.59,17.56 49.22,42.56 1.75,25 -18.19,46.7 -44.48,48.07" /><path
         id="path30"
         style="fill:#ffffff;fill-opacity:1;fill-rule:nonzero;stroke:none"
         d="m 1509.28,3953 c -103.38,7.37 -208.96,7.37 -313.79,0 -5.66,-0.39 -9.93,-5.3 -9.54,-10.96 0.41,-5.66 5.35,-9.83 10.98,-9.53 103.89,7.28 208.49,7.29 310.89,0 0.26,-0.02 0.5,-0.03 0.75,-0.03 5.34,0 9.85,4.13 10.23,9.55 0.41,5.66 -3.86,10.58 -9.52,10.97" /><path
         id="path32"
         style="fill:#ffffff;fill-opacity:1;fill-rule:nonzero;stroke:none"
         d="m 1231.55,4061.77 c 0.26,0 0.52,0.02 0.79,0.03 80.35,6.15 161.12,6.15 240.06,0 5.79,-0.47 10.61,3.8 11.05,9.45 0.44,5.66 -3.79,10.6 -9.44,11.04 -80,6.22 -161.83,6.22 -243.24,0 -5.66,-0.43 -9.89,-5.36 -9.46,-11.02 0.42,-5.4 4.92,-9.5 10.24,-9.5" /><path
         id="path34"
         style="fill:#fab20b;fill-opacity:1;fill-rule:nonzero;stroke:none"
         d="m 1218.66,4614.53 c -1.05,-38.5 -3.27,-73.84 27.1,-128.1 37,-66.12 80.51,-99.04 114.35,-153.39 29.79,-47.85 32.37,-92.5 4.07,-161.7 0,57.09 -90.56,137.89 -107.14,157.79 -20.46,24.55 -55.96,66.93 -68.63,135.95 -4.29,23.34 -7.44,80.95 30.25,149.45" /><path
         id="path36"
         style="fill:#ed1c24;fill-opacity:1;fill-rule:nonzero;stroke:none"
         d="m 1408.12,4244.96 c -1.29,-1.34 26.23,50.09 -40.5,139.27 -74.64,99.73 -124.1,143.18 -124.1,261.22 0,113.69 97.57,229.69 97.57,229.69 0,-105.66 64.92,-160.48 127.36,-242.21 31.55,-41.3 57.93,-99.85 48.41,-175.21 -4.9,-38.77 -15.62,-64.78 -29.8,-89.08 4.73,61.25 -9.24,104.66 -74.28,178.23 -51.97,58.77 -82.63,98.04 -91.61,169.39 -4.49,-57.87 -5.99,-113.25 66.1,-194.49 38.84,-43.77 57.26,-80.24 66.1,-128.83 10.82,-59.46 -18.44,-120 -45.25,-147.98" /><path
         id="path38"
         style="fill:#fab20b;fill-opacity:1;fill-rule:nonzero;stroke:none"
         d="m 944.914,3940.76 c -1.062,10.65 -6.641,19.84 -14.777,26.02 -7.321,5.56 -8.395,15.59 -2.41,22.56 6.671,7.78 10.257,17.88 9.183,28.54 -2.172,21.31 -22.543,34.2 -45.867,33.94 -76.477,-0.82 -181.695,-17.31 -249.566,-39.15 -22.204,-7.14 -37.719,-25.39 -33.266,-46.35 2.23,-10.48 8.734,-19 17.465,-24.36 7.836,-4.82 9.883,-14.69 4.625,-22.23 -5.84,-8.37 -8.324,-18.81 -6.09,-29.28 -21.961,-4.65 -35.938,-25.59 -31.188,-46.47 4.739,-20.88 25.821,-33.91 47.184,-29.4 4.473,-20.96 25.219,-34.3 46.297,-30.13 25.562,5.05 51.195,9.76 76.863,14.13 25.688,4.37 51.41,8.4 77.203,12.11 25.782,3.7 51.621,7.07 77.493,10.09 21.441,2.51 36.988,21.56 34.851,42.85 21.652,2.27 37.848,21.13 35.91,42.44 -1.84,21.34 -21.527,37.02 -43.91,34.69" /><path
         id="path40"
         style="fill:#ffffff;fill-opacity:1;fill-rule:nonzero;stroke:none"
         d="m 914.637,3908.11 c -83.821,-7.11 -168.477,-20.39 -251.602,-39.48 -4.492,-1.03 -7.297,-5.5 -6.265,-9.99 1.031,-4.48 5.519,-7.2 9.996,-6.26 82.39,18.91 166.254,32.08 249.281,39.1 0.203,0.03 0.402,0.05 0.598,0.08 4.285,0.67 7.382,4.56 7.011,8.94 -0.39,4.59 -4.426,8 -9.019,7.61" /><path
         id="path42"
         style="fill:#ffffff;fill-opacity:1;fill-rule:nonzero;stroke:none"
         d="m 678.266,3960.38 c 0.207,0.04 0.422,0.08 0.632,0.12 63.653,15.04 128.415,25.2 192.489,30.2 4.691,0.35 8.019,4.37 7.664,8.96 -0.356,4.6 -4.371,8.03 -8.965,7.67 -64.922,-5.07 -130.535,-15.37 -195.02,-30.59 -4.48,-1.06 -7.257,-5.55 -6.203,-10.03 1.012,-4.28 5.141,-7 9.403,-6.33" /><path
         id="path44"
         style="fill:#fab20b;fill-opacity:1;fill-rule:nonzero;stroke:none"
         d="m 606.859,4513.3 c -1.046,-38.5 -3.257,-73.84 27.106,-128.1 37,-66.12 80.504,-99.04 114.344,-153.39 29.793,-47.85 32.371,-92.5 4.074,-161.7 0,57.09 -90.563,137.89 -107.141,157.79 -20.461,24.55 -55.953,66.93 -68.629,135.96 -4.285,23.34 -7.429,80.94 30.246,149.44" /><path
         id="path46"
         style="fill:#ed1c24;fill-opacity:1;fill-rule:nonzero;stroke:none"
         d="m 796.324,4143.73 c -1.289,-1.34 26.231,50.09 -40.508,139.27 -74.636,99.73 -124.089,143.18 -124.089,261.22 0,113.69 97.57,229.69 97.57,229.69 0,-105.66 64.914,-160.48 127.355,-242.2 31.559,-41.31 57.938,-99.86 48.411,-175.22 -4.899,-38.77 -15.614,-64.78 -29.793,-89.08 4.722,61.25 -9.247,104.66 -74.297,178.23 -51.961,58.77 -82.621,98.05 -91.598,169.39 -4.492,-57.87 -5.988,-113.25 66.098,-194.49 38.836,-43.77 57.265,-80.24 66.105,-128.83 10.82,-59.46 -18.441,-120 -45.254,-147.98" /><path
         id="path48"
         style="fill:#fab20b;fill-opacity:1;fill-rule:nonzero;stroke:none"
         d="m 1759.85,3940.76 c 1.06,10.65 6.64,19.84 14.77,26.02 7.33,5.56 8.4,15.59 2.41,22.56 -6.67,7.78 -10.25,17.88 -9.18,28.54 2.17,21.31 22.54,34.2 45.87,33.94 76.48,-0.82 181.69,-17.31 249.56,-39.15 22.21,-7.14 37.73,-25.39 33.28,-46.35 -2.24,-10.48 -8.74,-19 -17.48,-24.36 -7.83,-4.82 -9.88,-14.69 -4.61,-22.23 5.84,-8.37 8.32,-18.81 6.08,-29.28 21.96,-4.65 35.94,-25.59 31.19,-46.47 -4.74,-20.88 -25.82,-33.91 -47.19,-29.4 -4.47,-20.96 -25.21,-34.3 -46.29,-30.13 -25.57,5.05 -51.2,9.76 -76.86,14.13 -25.69,4.37 -51.42,8.4 -77.21,12.11 -25.78,3.7 -51.62,7.07 -77.5,10.09 -21.43,2.51 -36.98,21.56 -34.84,42.85 -21.65,2.27 -37.84,21.13 -35.91,42.44 1.84,21.34 21.52,37.02 43.91,34.69" /><path
         id="path50"
         style="fill:#ffffff;fill-opacity:1;fill-rule:nonzero;stroke:none"
         d="m 1796.61,3908.11 c 83.83,-7.11 168.48,-20.39 251.61,-39.48 4.49,-1.03 7.29,-5.5 6.27,-9.99 -1.04,-4.48 -5.52,-7.2 -10,-6.26 -82.39,18.91 -166.25,32.08 -249.28,39.1 -0.21,0.03 -0.4,0.05 -0.6,0.08 -4.29,0.67 -7.38,4.56 -7.01,8.94 0.39,4.59 4.42,8 9.01,7.61" /><path
         id="path52"
         style="fill:#ffffff;fill-opacity:1;fill-rule:nonzero;stroke:none"
         d="m 2032.99,3960.38 c -0.21,0.04 -0.42,0.08 -0.63,0.12 -63.66,15.04 -128.42,25.2 -192.48,30.2 -4.7,0.35 -8.03,4.37 -7.67,8.96 0.35,4.6 4.36,8.03 8.95,7.67 64.93,-5.07 130.55,-15.37 195.03,-30.59 4.49,-1.06 7.26,-5.55 6.2,-10.03 -1.01,-4.28 -5.13,-7 -9.4,-6.33" /><path
         id="path54"
         style="fill:#fab20b;fill-opacity:1;fill-rule:nonzero;stroke:none"
         d="m 1830.45,4513.3 c -1.04,-38.5 -3.26,-73.84 27.1,-128.1 37,-66.12 80.51,-99.04 114.35,-153.39 29.79,-47.85 32.37,-92.5 4.07,-161.7 0,57.09 -90.56,137.89 -107.14,157.79 -20.46,24.55 -55.95,66.93 -68.62,135.96 -4.29,23.34 -7.43,80.94 30.24,149.44" /><path
         id="path56"
         style="fill:#ed1c24;fill-opacity:1;fill-rule:nonzero;stroke:none"
         d="m 2019.91,4143.73 c -1.28,-1.34 26.24,50.09 -40.5,139.27 -74.64,99.73 -124.09,143.18 -124.09,261.22 0,113.69 97.56,229.69 97.56,229.69 0,-105.66 64.93,-160.48 127.37,-242.2 31.55,-41.31 57.93,-99.86 48.4,-175.22 -4.9,-38.77 -15.61,-64.78 -29.79,-89.08 4.73,61.25 -9.25,104.66 -74.3,178.23 -51.96,58.77 -82.61,98.05 -91.6,169.39 -4.49,-57.87 -5.98,-113.25 66.11,-194.49 38.83,-43.77 57.26,-80.24 66.1,-128.83 10.82,-59.46 -18.44,-120 -45.26,-147.98" /><path
         id="path58"
         style="fill:#ffffff;fill-opacity:1;fill-rule:nonzero;stroke:none"
         d="m 341.813,1487.54 c -0.067,1.88 1.195,2.25 3.152,0.96 38.683,-25.37 57.344,-36.2 93.808,-55.13 1.84,-0.96 3.067,-2.87 3.067,-4.8 0,-12.64 0.012,-19.33 0.098,-33.12 0.007,-2.12 -1.192,-2.89 -3.02,-1.92 -20.648,11.09 -31.102,17.1 -52.348,30.28 -1.25,0.78 -1.859,0.47 -1.82,-0.92 0.539,-21.39 0.871,-32.68 1.797,-55.26 0.058,-1.46 0.695,-2.6 1.922,-3.41 17.969,-12 26.851,-17.53 44.465,-27.86 1.8,-1.05 3.027,-3.25 3.086,-5.51 0.371,-14.95 0.593,-22.5 1.16,-37.39 0.09,-2.26 -1.032,-3.04 -2.797,-1.94 -17.363,10.73 -26.106,16.5 -43.754,28.96 -1.203,0.84 -1.758,0.54 -1.672,-0.91 2.32,-38.06 3.84,-57.12 8.254,-89.5 0.254,-1.86 -0.719,-2.16 -2.434,-0.79 -12.672,10.24 -19.027,15.63 -31.797,27.02 -1.726,1.54 -3.085,3.77 -3.39,5.61 -13.43,80.51 -14.719,142.88 -17.777,225.63" /><path
         id="path60"
         style="fill:#ffffff;fill-opacity:1;fill-rule:nonzero;stroke:none"
         d="m 485.414,1407.47 c 0.02,1.95 1.231,2.67 3.027,1.87 13.27,-5.94 19.848,-8.73 32.918,-13.99 1.766,-0.7 2.922,-2.45 2.891,-4.42 -1.113,-71.12 -1.687,-126.22 1.324,-205.15 0.059,-1.46 0.649,-2.44 1.785,-2.98 19.524,-9.3 29.25,-13.46 48.68,-21.01 1.699,-0.66 2.863,-2.55 2.926,-4.72 0.394,-14.15 0.633,-20.95 1.219,-33.54 0.086,-1.93 -0.965,-2.75 -2.649,-2.09 -33.441,13.3 -50.14,21.09 -83.734,40.13 -1.684,0.96 -2.914,2.85 -3.071,4.76 -6.75,84.06 -6.152,155.44 -5.316,241.14" /><path
         id="path62"
         style="fill:#ffffff;fill-opacity:1;fill-rule:nonzero;stroke:none"
         d="m 610.941,1173.92 c -0.937,74.95 -0.308,123.84 0.985,187.05 0.039,1.96 1.211,2.9 2.922,2.42 12.668,-3.63 18.984,-5.31 31.586,-8.49 1.703,-0.43 2.812,-1.97 2.773,-3.93 -1.273,-65.01 -1.898,-117.27 -1.133,-194.39 0.137,-13.84 5.641,-23.67 14.961,-26.12 9.61,-2.53 14.867,4.5 14.766,18.38 -0.571,77.45 0,130.45 1.156,195.15 0.035,1.93 1.188,2.94 2.887,2.57 12.558,-2.76 18.832,-4.05 31.39,-6.5 1.7,-0.34 2.809,-1.8 2.778,-3.73 -0.918,-62.14 -1.371,-113.41 -1.051,-189.58 0.203,-50.14 -19.082,-64.75 -51.082,-56.32 -31.711,8.36 -52.324,34.14 -52.938,83.49" /><path
         id="path64"
         style="fill:#ffffff;fill-opacity:1;fill-rule:nonzero;stroke:none"
         d="m 762.805,1327.99 c 0.019,1.89 1.172,2.93 2.875,2.65 33.789,-5.59 50.398,-7.97 85.418,-13.01 1.769,-0.25 2.953,-1.61 2.953,-3.45 0,-12.03 0,-18.76 0,-33 0,-2.19 -1.184,-3.5 -2.953,-3.24 -20.047,2.82 -29.762,4.04 -49.336,6.85 -1.16,0.17 -1.735,-0.49 -1.739,-1.98 -0.085,-22.04 -0.117,-34.2 -0.168,-58.64 -0.003,-1.65 0.571,-2.58 1.731,-2.75 16.996,-2.44 25.535,-3.59 42.75,-5.89 1.75,-0.23 2.926,-2.04 2.926,-4.53 0,-16.31 0,-24.63 0,-40.95 0,-2.51 -1.176,-4.01 -2.926,-3.77 -17.234,2.33 -25.789,3.51 -42.805,6.01 -1.164,0.18 -1.738,-0.56 -1.738,-2.22 -0.012,-25.48 0.004,-38.17 0.062,-61.08 0.004,-1.49 0.583,-2.31 1.743,-2.49 19.656,-2.93 29.453,-4.35 49.5,-6.93 1.769,-0.24 2.953,-1.86 2.953,-4.05 0,-14.23 0,-20.96 0,-32.98 0,-1.85 -1.184,-2.89 -2.953,-2.67 -35.02,4.4 -51.825,6.61 -85.739,12.18 -1.711,0.27 -2.871,1.69 -2.89,3.58 -0.938,82.97 -0.489,169 0.336,252.36" /><path
         id="path66"
         style="fill:#ffffff;fill-opacity:1;fill-rule:nonzero;stroke:none"
         d="m 897.664,1308.41 c 0,1.83 1.176,2.88 2.945,2.66 14.719,-1.79 22.079,-2.63 36.786,-4.18 2.359,-0.25 3.531,-1.26 4.117,-3.46 13.301,-53.55 19.945,-97.85 33.23,-168.47 0.594,-0.05 0.887,-0.08 1.477,-0.13 0,69.46 0,113.11 0,165.23 0,1.83 1.176,2.91 2.933,2.75 11.172,-1 16.758,-1.47 27.928,-2.35 1.76,-0.14 2.94,-1.42 2.94,-3.26 0,-80.52 0,-169.63 0,-250.15 0,-1.84 -1.18,-2.93 -2.94,-2.8 -14.107,1.07 -21.158,1.65 -35.271,2.87 -2.36,0.2 -3.532,1.19 -4.121,3.37 -13.875,53.35 -20.813,97.66 -34.704,168.67 -0.589,0.07 -0.882,0.09 -1.472,0.15 0,-69.55 0,-113.26 0,-165.44 0,-1.84 -1.172,-2.91 -2.942,-2.73 -11.179,1.11 -16.769,1.7 -27.961,2.92 -1.769,0.19 -2.945,1.51 -2.945,3.35 0,80.78 0,170.21 0,251" /><path
         id="path68"
         style="fill:#ffffff;fill-opacity:1;fill-rule:nonzero;stroke:none"
         d="m 1099.3,1077.89 c 3.76,-0.19 5.64,-0.29 9.4,-0.46 9.68,-0.47 14.83,3.8 17.9,14.91 2.17,7.85 3.23,18.68 3.23,72.76 0,54.07 -1.05,64.97 -3.23,73.02 -3.07,11.38 -8.22,16.09 -17.9,16.54 -3.76,0.18 -5.64,0.27 -9.4,0.45 -1.17,0.06 -1.76,-0.63 -1.76,-2.12 0,-63.66 0,-109.15 0,-172.81 0,-1.47 0.59,-2.23 1.76,-2.29 z m -40.22,215.9 c 0,1.83 1.18,2.94 2.94,2.83 20.2,-1.22 30.3,-1.75 50.49,-2.67 27.59,-1.26 43.73,-11.41 51.07,-39.66 3.52,-13.93 5.28,-31.16 5.28,-90.64 0,-59.49 -1.76,-76.61 -5.28,-90.31 -7.34,-27.75 -23.48,-36.88 -51.07,-35.56 -20.19,0.96 -30.29,1.5 -50.49,2.72 -1.76,0.11 -2.94,1.37 -2.94,3.21 0,80.53 0,169.55 0,250.08" /><path
         id="path70"
         style="fill:#ffffff;fill-opacity:1;fill-rule:nonzero;stroke:none"
         d="m 1281.28,1081.46 c 1.47,6.01 2.06,11.11 2.06,79.83 0,68.7 -0.59,73.81 -2.06,79.85 -1.75,7.17 -6.75,12.27 -14.09,12.35 -7.34,0.09 -12.34,-4.89 -14.09,-12.02 -1.48,-5.98 -2.06,-11.08 -2.06,-79.77 0,-68.71 0.58,-73.82 2.06,-79.86 1.75,-7.18 6.75,-12.31 14.09,-12.41 7.34,-0.1 12.34,4.9 14.09,12.03 z m -65.16,-12.18 c -3.23,11.26 -4.11,20.33 -4.11,93.17 0,72.83 0.88,81.85 4.11,92.97 7.34,26.89 24.94,37.33 51.07,37.04 26.12,-0.3 43.74,-11.16 51.08,-38.28 3.24,-11.21 4.12,-20.28 4.12,-93.16 0,-72.89 -0.88,-81.95 -4.12,-93.13 -7.34,-27.06 -24.96,-37.8 -51.08,-37.42 -26.13,0.37 -43.73,11.59 -51.07,38.81" /><path
         id="path72"
         style="fill:#ffffff;fill-opacity:1;fill-rule:nonzero;stroke:none"
         d="m 1444.98,1161.62 c 0.03,73.29 1.21,83.42 3.88,93.9 7.08,26.4 23.3,37.48 49.82,38.14 32.13,0.78 50.96,-13.74 52.65,-57.51 -0.01,-2.32 -0.59,-4.28 -2.66,-4.75 -12.37,-3.24 -18.56,-4.85 -30.93,-8.05 -1.77,-0.45 -3.21,0.74 -3.25,3.44 -0.25,20.84 -5.54,28.18 -15.27,27.93 -7.07,-0.17 -11.44,-3.97 -13.27,-11.76 -1.29,-5.48 -1.78,-8.58 -1.85,-80.61 -0.05,-72.04 0.42,-75.11 1.69,-80.55 1.81,-7.69 6.17,-11.31 13.22,-11.12 9.7,0.24 15.01,7.88 15.33,28.76 0.04,2.71 1.47,3.97 3.23,3.64 12.35,-2.47 18.53,-3.68 30.87,-6.03 2.06,-0.31 2.65,-2.23 2.64,-4.54 -1.85,-43.91 -20.69,-59.95 -52.71,-60.79 -26.43,-0.7 -42.59,9.93 -49.62,36.1 -2.64,10.41 -3.81,20.51 -3.77,93.8" /><path
         id="path74"
         style="fill:#ffffff;fill-opacity:1;fill-rule:nonzero;stroke:none"
         d="m 1661.97,1224.22 c 0.07,28.31 -6.38,35.18 -21.38,34.26 -3.41,-0.2 -5.12,-0.31 -8.53,-0.5 -1.18,-0.07 -1.76,-0.84 -1.77,-2.31 -0.07,-25.59 -0.11,-40.08 -0.18,-68.92 -0.01,-1.67 0.58,-2.46 1.76,-2.39 3.41,0.2 5.12,0.3 8.52,0.51 15,0.91 21.5,10.62 21.58,39.35 z m 6.52,-181.99 c -1.76,-0.12 -2.64,0.4 -3.21,2.2 -8.94,30.79 -13.41,51.87 -22.36,93.71 -4.46,-0.27 -6.7,-0.41 -11.17,-0.66 -1.18,-0.07 -1.77,-0.93 -1.77,-2.58 -0.1,-40.98 -0.15,-61.51 -0.25,-92.07 -0.01,-1.85 -1.19,-3.1 -2.96,-3.19 -13.04,-0.75 -19.56,-1.09 -32.61,-1.71 -1.76,-0.09 -2.93,1.04 -2.93,2.88 0.24,80.71 0.35,169.72 0.59,250.44 0.01,1.83 1.19,3.07 2.96,3.16 19.09,0.91 28.63,1.43 47.69,2.59 35.61,2.19 58.44,-9.72 58.27,-69.94 -0.08,-34.32 -8.67,-59.11 -22.51,-73.38 10.8,-46.99 16.2,-71.39 27.01,-105.74 0.57,-1.48 -0.02,-3.02 -1.49,-3.14 -14.1,-1.1 -21.15,-1.61 -35.26,-2.57" /><path
         id="path76"
         style="fill:#ffffff;fill-opacity:1;fill-rule:nonzero;stroke:none"
         d="m 1747.33,1302.21 c 0,1.85 1.18,3.15 2.94,3.31 34.8,3.42 52.16,5.39 86.78,10.02 1.75,0.23 2.91,-0.8 2.91,-2.64 -0.01,-12.02 -0.02,-18.75 -0.02,-32.98 -0.01,-2.19 -1.17,-3.82 -2.93,-4.05 -19.83,-2.61 -29.77,-3.81 -49.66,-6.02 -1.18,-0.14 -1.76,-0.93 -1.76,-2.41 -0.05,-21.9 -0.07,-34.03 -0.12,-58.46 -0.01,-1.64 0.58,-2.42 1.75,-2.29 17.23,1.88 25.84,2.89 43.03,5.05 1.75,0.22 2.92,-1.28 2.92,-3.77 -0.01,-16.29 -0.02,-24.6 -0.03,-40.91 0,-2.5 -1.17,-4.31 -2.93,-4.52 -17.22,-2.12 -25.84,-3.12 -43.08,-4.97 -1.17,-0.13 -1.76,-1.02 -1.77,-2.67 -0.04,-25.47 -0.06,-38.16 -0.11,-60.93 0,-1.49 0.57,-2.16 1.75,-2.04 19.97,2.1 29.95,3.23 49.9,5.68 1.75,0.22 2.93,-1.11 2.93,-3.29 -0.01,-14.24 -0.01,-20.96 -0.02,-32.99 0,-1.84 -1.18,-3.17 -2.94,-3.38 -34.91,-4.21 -52.37,-6.05 -87.28,-9.26 -1.76,-0.16 -2.93,0.92 -2.93,2.76 0.27,80.73 0.4,170.03 0.67,250.76" /><path
         id="path78"
         style="fill:#ffffff;fill-opacity:1;fill-rule:nonzero;stroke:none"
         d="m 1931.43,1068.79 c -36.33,-6.26 -53.43,9.65 -53.92,55.2 0.01,2.33 0.61,4 2.39,4.65 12.69,4.57 19.08,6.92 31.92,11.76 2.1,0.75 3.3,-0.25 3.28,-2.61 0.41,-24.82 5.64,-32.58 17.3,-30.46 11.06,2 16.31,9.47 16.67,33.83 0.34,23.56 -3.24,31.73 -18.62,37.29 -4.95,1.78 -7.42,2.68 -12.36,4.52 -28.91,10.54 -38.65,32.15 -38.64,74.93 0,48.28 17.38,68.73 54.69,75.39 36.71,6.54 54.47,-8.23 55.58,-49.29 -0.02,-2.33 -0.98,-4.07 -2.84,-4.84 -12.74,-5.01 -19.08,-7.45 -31.69,-12.21 -1.86,-0.73 -3.37,0.21 -3.37,2.55 -0.05,19 -5.45,27.14 -16.51,25.3 -10.77,-1.8 -15.95,-10.38 -15.99,-28.35 -0.05,-19.9 3.24,-26.28 19.41,-32.11 5,-1.76 7.5,-2.63 12.51,-4.35 28.42,-9.67 39.33,-28.67 38.27,-74.13 -1.27,-54.98 -18.21,-80.2 -58.08,-87.07" /><path
         id="path80"
         style="fill:#ffffff;fill-opacity:1;fill-rule:nonzero;stroke:none"
         d="m 2032.65,1221.53 c 1.82,71.72 2.99,82.85 6.01,94.26 8.04,28.82 25.77,45.48 54.41,53.64 34.69,9.88 54.4,-1.8 54.56,-44.48 -0.09,-2.29 -0.79,-4.41 -3,-5.55 -13.24,-7.25 -19.88,-10.78 -33.14,-17.65 -1.91,-0.96 -3.38,-0.23 -3.33,2.44 0.36,20.4 -5.1,26.67 -15.53,23.72 -7.58,-2.14 -12.34,-7.16 -14.51,-15.59 -1.51,-5.87 -1.8,-9.9 -4.23,-79.69 -2.42,-69.78 -2.58,-73.19 -1.53,-78.28 1.43,-7.06 5.72,-9.52 12.97,-7.07 9.99,3.38 16,13.01 17.49,33.7 0.18,2.65 1.73,4.39 3.55,4.65 12.67,1.77 18.97,2.79 31.54,5.2 2.11,0.49 2.58,-1.17 2.41,-3.42 -4.9,-43.64 -26.07,-70.4 -58.52,-81.43 -26.8,-9.1 -42.24,-1.13 -48.29,23.68 -2.25,9.9 -2.67,20.14 -0.86,91.87" /><path
         id="path82"
         style="fill:#ffffff;fill-opacity:1;fill-rule:nonzero;stroke:none"
         d="m 2192.71,1396.08 c 0.08,2.07 1.38,3.92 3.26,4.64 13.85,5.37 20.73,8.17 34.39,14.06 1.85,0.8 3.01,-0.03 2.92,-2.1 -4.05,-90.85 -6.62,-152.07 -18.23,-240.48 -0.26,-2.01 -1.62,-4.02 -3.38,-5.04 -13.06,-7.5 -19.62,-11.01 -32.74,-17.65 -1.78,-0.9 -2.8,-0.17 -2.56,1.86 10.38,88.81 12.69,153.71 16.34,244.71" /><path
         id="path84"
         style="fill:#ffffff;fill-opacity:1;fill-rule:nonzero;stroke:none"
         d="m 2292.75,1221.5 c -1.73,-1.35 -2.69,-0.94 -2.38,1.03 11.09,71.28 14.02,113.41 18.36,189.38 0.08,1.41 -0.47,1.76 -1.64,1.08 -12.55,-7.26 -18.9,-10.74 -31.71,-17.38 -1.79,-0.94 -2.92,-0.12 -2.8,2 0.74,13.91 1.08,20.78 1.72,34.17 0.1,2.05 1.37,4.01 3.16,4.91 42.81,21.43 63.6,33.56 102.58,61.45 1.63,1.16 2.68,0.67 2.6,-1.27 -0.48,-12.64 -0.75,-18.99 -1.39,-31.67 -0.1,-1.95 -1.27,-4.07 -2.92,-5.31 -11.79,-8.82 -17.79,-13.06 -29.94,-21.19 -1.14,-0.76 -1.75,-1.81 -1.82,-3.17 -4.15,-73.49 -7.04,-112.59 -18.53,-182.21 -0.32,-1.92 -1.68,-4.19 -3.4,-5.68 -12.69,-11 -19.07,-16.22 -31.89,-26.14" /><path
         id="path86"
         style="fill:#254aa5;fill-opacity:1;fill-rule:nonzero;stroke:none"
         d="M 937.387,697.121 V 308.602 c 0,-30.383 -3.711,-57.45 -11.028,-80.454 -6.843,-21.507 -16.699,-39.308 -29.3,-52.886 -13.727,-14.801 -28.207,-24.602 -44.661,-30.082 -16.98,-6.598 -36.359,-9.809 -59.226,-9.809 -22.777,0 -42.305,3.281 -58.57,9.961 -16.055,5.34 -30.536,15.129 -44.262,29.93 -12.61,13.59 -22.473,31.386 -29.301,52.886 -7.316,22.981 -11.027,50.043 -11.027,80.454 V 751.84 h -85.809 c -33.605,0 -60.941,-27.328 -60.941,-60.93 V 296.141 c 0,-43.391 5.551,-81.18 16.902,-115.231 C 530.5,145.789 548.191,114.391 572.625,87.7188 596.008,61.1602 625.453,40.8203 662.844,25.4297 699.68,11.3203 743.18,4.17188 792.145,4.17188 c 48.554,0 92.382,7.13672 130.519,21.32812 37.774,15.5508 68.414,36.4805 90.966,62.0898 24.01,26.2192 42.03,57.5392 53.51,93.0512 11.44,34.308 16.99,72.078 16.99,115.5 V 751.84 h -85.806 c -30.527,0 -57.265,-23.61 -60.937,-54.719" /><path
         id="path88"
         style="fill:#254aa5;fill-opacity:1;fill-rule:nonzero;stroke:none"
         d="m 1204.83,10.082 h 84.77 c 34.19,0 61.99,27.8164 61.99,61.9883 V 334.941 h 264.68 v 59.34 c 0,34.93 -28.41,63.321 -63.32,63.321 h -201.36 v 169.679 h 263.46 c 33.55,0 60.83,27.289 60.83,60.828 v 64.77 H 1204.83 V 10.082" /><path
         id="path90"
         style="fill:#254aa5;fill-opacity:1;fill-rule:nonzero;stroke:none"
         d="m 2218.23,300.16 c -10.06,25.699 -24.26,46.988 -43.61,65.27 -21.8,19.359 -44.47,34.359 -68.99,45.672 -24.68,12.82 -53.63,25.136 -91.32,38.828 -18.11,6.011 -35.53,13.191 -51.96,21.402 -14.36,6.699 -28.68,14.738 -40.78,22.75 -11.16,9.137 -19.56,18.789 -25.25,29.18 -6.11,9.617 -9.09,21.41 -9.09,36.047 0,22.98 8.71,41.39 25.72,54.601 18.17,13.399 44.44,20.192 78.07,20.192 25.9,0 53.46,-3.321 83.46,-9.954 4.76,-1.589 9.52,-2.898 14.28,-4.226 3.89,-1.082 7.78,-2.172 11.67,-3.41 1.37,-0.981 3.22,-1.723 5.7,-1.992 4.81,-2.032 11.21,-3.211 17.51,-3.211 24.87,0 47.23,15.05 55.96,37.543 l 23.42,61.218 -5.91,3.399 c -21.75,12.57 -49.87,23.972 -83.77,33.941 -36,9.809 -76.46,14.801 -120.24,14.801 -78.86,0 -140.49,-18.531 -188.59,-56.789 -45.93,-38.461 -69.21,-91.801 -69.21,-158.531 0,-31.852 5.31,-59.039 16.46,-83.551 12.58,-24 27.07,-43.059 44.3,-58.258 19.89,-17.551 40.57,-30.863 62.88,-40.543 22.01,-11.019 44.81,-20.098 72.54,-30.488 24.6,-8.192 46.32,-16.481 64.69,-24.653 18.92,-7.937 35.04,-17.007 47.93,-26.937 13.84,-10.641 22.8,-20.129 29.04,-30.801 6.14,-10.508 9.25,-24.121 9.25,-40.461 0,-27.07 -9.4,-46.957 -28.88,-60.867 -19.39,-14.531 -52.81,-22.211 -96.67,-22.211 -43.48,0 -81.33,5.098 -112.45,15.129 -9.22,3.07 -17.4,6.141 -25.47,9.18 -6.03,2.39 -13.16,3.66 -20.6,3.66 -26.86,0 -49.79,-15.961 -58.39,-40.59 l -20.87,-57.9297 5.54,-3.4687 c 8.75,-5.4805 19.32,-10.7696 34.54,-17.2813 14.93,-5.7383 31.25,-11.75 49.43,-16.8008 22.17,-6.1875 43.81,-10.98825 66.4,-14.75778 26.82,-3.49219 54.36,-5.2500012 81.87,-5.2500012 89.15,0 158.09,18.3398812 204.91,54.5468812 47.47,36.6602 71.53,89.3714 71.53,156.6404 0,36.512 -4.96,65.711 -15.05,88.961" /></g></g></svg>